<?xml version="1.0" encoding="utf-8"?>
<!-- Generator: Adobe Illustrator 23.0.1, SVG Export Plug-In . SVG Version: 6.00 Build 0)  -->
<svg version="1.1" id="Layer_1" xmlns="http://www.w3.org/2000/svg" xmlns:xlink="http://www.w3.org/1999/xlink" x="0px" y="0px"
	 viewBox="0 0 367 411" style="enable-background:new 0 0 367 411;" xml:space="preserve">
<g id="m3x7pv_1_">
	<g>
		<path d="M363.5,206.5c0,26.7,0,53.5,0,80.2c0,12.2-3.8,23.1-13.5,31c-4.9,4-10.6,7.1-16.2,10.3c-31.5,18.2-63.1,36.4-94.6,54.6
			c-12,6.9-23.9,14.1-36.1,20.8c-14.2,7.8-28.4,6.2-42.1-1.7c-30.5-17.4-61-35.1-91.4-52.6c-14.7-8.5-29.6-16.6-44.1-25.4
			c-14.2-8.6-22.1-21.3-22.1-38.3c0-52.7,0-105.3,0-158c0-17,7.9-29.8,22.2-38.2C60.2,68.8,95.1,49,129.8,29
			c10.4-6,20.8-12.1,31.4-18c13.7-7.6,27.7-9.2,41.9-1.6c11.2,6.1,22,12.7,33.1,19.1c22.5,13,45.1,26,67.6,39
			c13.3,7.7,26.7,15.3,40,23.1c13.5,7.9,19.6,20.1,19.7,35.5C363.5,152.9,363.5,179.7,363.5,206.5z M275.9,257.5
			c-3.6,3.1-6.8,6.4-10.5,8.9c-12.6,8.7-26.8,13.5-41.9,15.5c-24.5,3.4-45.8-3.9-63.9-20.3c-15.6-14.2-21.8-33.1-23.7-53.5
			c-1.5-16.3-0.4-32.6,3-48.7c3.2-15.6,8.7-30.3,19.2-42.5c14.4-16.7,32.1-25.6,54.8-22c5.4,0.9,10.6,2.3,15,5.7
			c2.5,1.9,2.4,3.2-0.1,4.6c-12.4,7.2-16.9,18.5-15.5,32.1c2.2,20.3,21.2,32.1,39.4,28.3c13.4-2.8,22.4-11.4,25.9-24.6
			c3.5-13.2-0.5-24.8-10.7-33.8c-12-10.5-26.4-16.3-41.9-19.3c-15.3-3-30.7-2.7-46-0.6c-30.1,4.3-56.3,16.5-76.8,39.5
			c-19.8,22.2-29.8,48.4-29.9,78c-0.1,27.7,8.7,52.9,24.9,75.4c12.9,17.9,29.3,31.5,50.1,39.5c15.4,5.9,31.3,7.3,47.6,5.8
			c16.5-1.5,32.2-5.7,46.6-14.2c17.3-10.2,30.5-24.2,38.3-43c2.7-6.6,2.7-6.5-3.2-10.3C276.5,257.8,276.1,257.6,275.9,257.5z"/>
	</g>
</g>
</svg>
